<svg xmlns="http://www.w3.org/2000/svg">
  
  <symbol id="icon-cart" viewBox="0 0 2138.327 2138.327">
  	<path d="M1032.925,1852.654c0,98.076-79.506,177.583-177.583,177.583S677.76,1950.73,677.76,1852.654  c0-98.076,79.506-177.583,177.583-177.583S1032.925,1754.578,1032.925,1852.654z M1574.387,1675.072  c-98.076,0-177.583,79.507-177.583,177.583c0,98.076,79.507,177.583,177.583,177.583c98.076,0,177.583-79.507,177.583-177.583  C1751.969,1754.578,1672.463,1675.072,1574.387,1675.072z M2125.619,841.423l-218.512,649.464c0,0-18.088,96.383-110.247,96.383  s-993.407,0-1103.389,0s-114.604-120.809-114.604-120.809S461.624,596.637,455.814,544.088s-73.013-91.498-73.013-91.498  L93.651,317.522c-158.306-82.784-86.349-240.298,0-204.121c366.652,172.961,536.973,258.122,547.932,326.25  c11.091,68.26,30.367,232.64,30.367,232.64v1.056c2.245-0.66,3.829-1.056,3.829-1.056s1124.382,0,1351.477,0  C2190.447,672.291,2125.619,841.688,2125.619,841.423z M1809.535,1203.058l-2.245,0.132H737.57L759.619,1378h997.896  L1809.535,1203.058z M1913.708,850.534H693.339l23.502,186.825c234.092,0,919.601,0,1141.678,0L1913.708,850.534z"/>
  </symbol>

 	
 	<symbol id="icon-zoom" viewBox="0 0 52.966 52.966">
 		<path d="M28.983,20h-6v-6c0-0.552-0.448-1-1-1s-1,0.448-1,1v6h-6c-0.552,0-1,0.448-1,1s0.448,1,1,1h6v6c0,0.552,0.448,1,1,1
 			s1-0.448,1-1v-6h6c0.552,0,1-0.448,1-1S29.535,20,28.983,20z"/>
 		<path d="M51.704,51.273L36.845,35.82c3.79-3.801,6.138-9.041,6.138-14.82c0-11.58-9.42-21-21-21s-21,9.42-21,21s9.42,21,21,21
 			c5.083,0,9.748-1.817,13.384-4.832l14.895,15.491c0.196,0.205,0.458,0.307,0.721,0.307c0.25,0,0.499-0.093,0.693-0.279
 			C52.074,52.304,52.086,51.671,51.704,51.273z M2.983,21c0-10.477,8.523-19,19-19s19,8.523,19,19s-8.523,19-19,19
 			S2.983,31.477,2.983,21z"/>
 	</symbol>

 	<symbol id="icon-favorite" viewBox="0 0 49.94 49.94">
 		<path d="M48.856,22.73c0.983-0.958,1.33-2.364,0.906-3.671c-0.425-1.307-1.532-2.24-2.892-2.438l-12.092-1.757  c-0.515-0.075-0.96-0.398-1.19-0.865L28.182,3.043c-0.607-1.231-1.839-1.996-3.212-1.996c-1.372,0-2.604,0.765-3.211,1.996  L16.352,14c-0.23,0.467-0.676,0.79-1.191,0.865L3.069,16.622c-1.359,0.197-2.467,1.131-2.892,2.438  c-0.424,1.307-0.077,2.713,0.906,3.671l8.749,8.528c0.373,0.364,0.544,0.888,0.456,1.4L8.224,44.701  c-0.183,1.06,0.095,2.091,0.781,2.904c1.066,1.267,2.927,1.653,4.415,0.871l10.814-5.686c0.452-0.237,1.021-0.235,1.472,0  l10.815,5.686c0.526,0.277,1.087,0.417,1.666,0.417c1.057,0,2.059-0.47,2.748-1.288c0.687-0.813,0.964-1.846,0.781-2.904  l-2.065-12.042c-0.088-0.513,0.083-1.036,0.456-1.4L48.856,22.73z"/>
 	</symbol>

 	<symbol id="icon-credit-card" viewBox="0 0 512 512">
 		<path d="M498.409,175.706L336.283,13.582c-8.752-8.751-20.423-13.571-32.865-13.571c-12.441,0-24.113,4.818-32.865,13.569
 			L13.571,270.563C4.82,279.315,0,290.985,0,303.427c0,12.442,4.82,24.114,13.571,32.864l19.992,19.992
 			c0.002,0.001,0.003,0.003,0.005,0.005c0.002,0.002,0.004,0.004,0.006,0.006l134.36,134.36H149.33
 			c-5.89,0-10.666,4.775-10.666,10.666c0,5.89,4.776,10.666,10.666,10.666h59.189c0.014,0,0.027,0.001,0.041,0.001
 			s0.027-0.001,0.041-0.001l154.053,0.002c5.89,0,10.666-4.776,10.666-10.666c0-5.891-4.776-10.666-10.666-10.666l-113.464-0.002
 			L498.41,241.434C516.53,223.312,516.53,193.826,498.409,175.706z M483.325,226.35L226.341,483.334
 			c-4.713,4.712-11.013,7.31-17.742,7.32h-0.081c-6.727-0.011-13.025-2.608-17.736-7.32L56.195,348.746L302.99,101.949
 			c4.165-4.165,4.165-10.919,0-15.084c-4.166-4.165-10.918-4.165-15.085,0.001L41.11,333.663l-12.456-12.456
 			c-4.721-4.721-7.321-11.035-7.321-17.779c0-6.744,2.6-13.059,7.322-17.781L285.637,28.665c4.722-4.721,11.037-7.321,17.781-7.321
 			c6.744,0,13.059,2.6,17.781,7.322l57.703,57.702l-246.798,246.8c-4.165,4.164-4.165,10.918,0,15.085
 			c2.083,2.082,4.813,3.123,7.542,3.123c2.729,0,5.459-1.042,7.542-3.124l246.798-246.799l89.339,89.336
 			C493.128,200.593,493.127,216.546,483.325,226.35z"/>
 		<path d="M262.801,308.064c-4.165-4.165-10.917-4.164-15.085,0l-83.934,83.933c-4.165,4.165-4.165,10.918,0,15.085
 			c2.083,2.083,4.813,3.124,7.542,3.124c2.729,0,5.459-1.042,7.542-3.124l83.934-83.933
 			C266.966,318.982,266.966,312.229,262.801,308.064z"/>
 		<path d="M228.375,387.741l-34.425,34.425c-4.165,4.165-4.165,10.919,0,15.085c2.083,2.082,4.813,3.124,7.542,3.124
 			c2.731,0,5.459-1.042,7.542-3.124l34.425-34.425c4.165-4.165,4.165-10.919,0-15.085
 			C239.294,383.575,232.543,383.575,228.375,387.741z"/>
 		<path d="M260.054,356.065l-4.525,4.524c-4.166,4.165-4.166,10.918-0.001,15.085c2.082,2.083,4.813,3.125,7.542,3.125
 			c2.729,0,5.459-1.042,7.541-3.125l4.525-4.524c4.166-4.165,4.166-10.918,0.001-15.084
 			C270.974,351.901,264.219,351.9,260.054,356.065z"/>
 		<path d="M407.073,163.793c-2-2-4.713-3.124-7.542-3.124c-2.829,0-5.541,1.124-7.542,3.124l-45.255,45.254
 			c-2,2.001-3.124,4.713-3.124,7.542s1.124,5.542,3.124,7.542l30.17,30.167c2.083,2.083,4.813,3.124,7.542,3.124
 			c2.731,0,5.459-1.042,7.542-3.124l45.253-45.252c4.165-4.165,4.165-10.919,0-15.084L407.073,163.793z M384.445,231.673
 			l-15.085-15.084l30.17-30.169l15.084,15.085L384.445,231.673z"/>
 		<path d="M320.339,80.186c2.731,0,5.461-1.042,7.543-3.126l4.525-4.527c4.164-4.166,4.163-10.92-0.003-15.084
 			c-4.165-4.164-10.92-4.163-15.084,0.003l-4.525,4.527c-4.164,4.166-4.163,10.92,0.003,15.084
 			C314.881,79.146,317.609,80.186,320.339,80.186z"/>
 		<path d="M107.215,358.057l-4.525,4.525c-4.165,4.164-4.165,10.918,0,15.085c2.083,2.082,4.813,3.123,7.542,3.123
 			s5.459-1.041,7.542-3.123l4.525-4.525c4.165-4.166,4.165-10.92,0-15.085C118.133,353.891,111.381,353.891,107.215,358.057z"/>
 	</symbol>

 	<symbol id="icon-mobile-shopping"  viewBox="0 0 480 480" >
 		<path d="M224.002,448h32c4.418,0,8-3.582,8-8s-3.582-8-8-8h-32c-4.418,0-8,3.582-8,8S219.584,448,224.002,448z"/>
 		<path d="M104.002,120c4.418,0,8-3.582,8-8V64h256v64c0,4.418,3.582,8,8,8s8-3.582,8-8V32c0-14.4-18.464-32-40-32h-208
 			c-22.08,0.026-39.974,17.92-40,40v72C96.002,116.418,99.584,120,104.002,120z M112.002,40c0-13.255,10.745-24,24-24h208
 			c13.864,0,24,11.2,24,16v16h-256V40z"/>
 		<path d="M376.002,352c-4.418,0-8,3.582-8,8v40h-256v-32c0-4.418-3.582-8-8-8s-8,3.582-8,8v72c0.026,22.08,17.92,39.974,40,40h208
 			c22.08-0.026,39.974-17.92,40-40v-80C384.002,355.582,380.42,352,376.002,352z M368.002,440c0,13.255-10.745,24-24,24h-208
 			c-13.255,0-24-10.745-24-24v-24h256V440z"/>
 		<path d="M224.002,24h-16c-4.418,0-8,3.582-8,8s3.582,8,8,8h16c4.418,0,8-3.582,8-8S228.42,24,224.002,24z"/>
 		<path d="M272.002,24h-16c-4.418,0-8,3.582-8,8s3.582,8,8,8h16c4.418,0,8-3.582,8-8S276.42,24,272.002,24z"/>
 		<path d="M478.162,154.888L478.162,154.888c-1.521-1.831-3.779-2.89-6.16-2.888H262.018l-4.08-27.512
 			c-1.801-11.738-11.869-20.425-23.744-20.488h-34.192v16h34.192c3.969-0.003,7.34,2.905,7.92,6.832l27.952,188.68
 			c1.801,11.738,11.869,20.425,23.744,20.488h19.664c4.335,12.442,17.935,19.014,30.376,14.68
 			c6.877-2.396,12.284-7.802,14.68-14.68h34.944c4.418,12.497,18.131,19.046,30.627,14.627s19.046-18.131,14.627-30.627
 			c-4.418-12.497-18.131-19.046-30.627-14.627c-6.835,2.416-12.211,7.793-14.627,14.627H358.53
 			c-4.335-12.442-17.935-19.014-30.376-14.68c-6.877,2.396-12.284,7.802-14.68,14.68H293.81c-3.96-0.021-7.318-2.917-7.92-6.832
 			L283.346,296h164.656c3.845-0.003,7.145-2.741,7.856-6.52l24-128C480.302,159.14,479.68,156.723,478.162,154.888z M416.002,320
 			c4.418,0,8,3.582,8,8s-3.582,8-8,8s-8-3.582-8-8S411.584,320,416.002,320z M336.002,320c4.418,0,8,3.582,8,8s-3.582,8-8,8
 			s-8-3.582-8-8S331.584,320,336.002,320z M441.362,280H280.978l-16.584-112h198.008L441.362,280z"/>
 		<path d="M208.002,240c0-57.438-46.562-104-104-104s-104,46.562-104,104s46.562,104,104,104
 			C161.412,343.934,207.936,297.41,208.002,240z M16.002,240c0-48.601,39.399-88,88-88s88,39.399,88,88c0,48.601-39.399,88-88,88
 			C55.425,327.943,16.059,288.577,16.002,240z"/>
 		<path d="M112.002,304v-9.136c17.081-4.396,27.364-21.807,22.968-38.888c-3.636-14.126-16.381-23.994-30.968-23.976
 			c-8.837,0-16-7.163-16-16s7.163-16,16-16s16,7.163,16,16c0,4.418,3.582,8,8,8c4.418,0,8-3.582,8-8
 			c-0.055-14.547-9.914-27.227-24-30.864V176c0-4.418-3.582-8-8-8s-8,3.582-8,8v9.136c-17.081,4.396-27.364,21.807-22.968,38.888
 			c3.636,14.126,16.381,23.994,30.968,23.976c8.837,0,16,7.163,16,16s-7.163,16-16,16s-16-7.163-16-16c0-4.418-3.582-8-8-8
 			s-8,3.582-8,8c0.055,14.547,9.914,27.227,24,30.864V304c0,4.418,3.582,8,8,8S112.002,308.418,112.002,304z"/>
 		<path d="M288.002,192h112c4.418,0,8-3.582,8-8s-3.582-8-8-8h-112c-4.418,0-8,3.582-8,8S283.584,192,288.002,192z"/>
 		<path d="M424.002,192h16c4.418,0,8-3.582,8-8s-3.582-8-8-8h-16c-4.418,0-8,3.582-8,8S419.584,192,424.002,192z"/>
 	</symbol>

 	<symbol id="icon-right-arrow" viewBox="0 0 129 129">
 		<path d="m40.4,121.3c-0.8,0.8-1.8,1.2-2.9,1.2s-2.1-0.4-2.9-1.2c-1.6-1.6-1.6-4.2 0-5.8l51-51-51-51c-1.6-1.6-1.6-4.2 0-5.8 1.6-1.6 4.2-1.6 5.8,0l53.9,53.9c1.6,1.6 1.6,4.2 0,5.8l-53.9,53.9z"/>
 	</symbol>

 	<symbol id="icon-search" viewBox="0 0 56.966 56.966">
 		<path d="M55.146,51.887L41.588,37.786c3.486-4.144,5.396-9.358,5.396-14.786c0-12.682-10.318-23-23-23s-23,10.318-23,23  s10.318,23,23,23c4.761,0,9.298-1.436,13.177-4.162l13.661,14.208c0.571,0.593,1.339,0.92,2.162,0.92  c0.779,0,1.518-0.297,2.079-0.837C56.255,54.982,56.293,53.08,55.146,51.887z M23.984,6c9.374,0,17,7.626,17,17s-7.626,17-17,17  s-17-7.626-17-17S14.61,6,23.984,6z" fill="#000"/>
 	</symbol>

 	<symbol id="icon-marker" viewBox="0 0 54.757 54.757">
 		<path d="M40.94,5.617C37.318,1.995,32.502,0,27.38,0c-5.123,0-9.938,1.995-13.56,5.617c-6.703,6.702-7.536,19.312-1.804,26.952
 			L27.38,54.757L42.721,32.6C48.476,24.929,47.643,12.319,40.94,5.617z M27.557,26c-3.859,0-7-3.141-7-7s3.141-7,7-7s7,3.141,7,7
 			S31.416,26,27.557,26z"/>
 	</symbol>

 	<symbol id="icon-email" viewBox="0 0 14 14">
 		<path d="M7,9L5.268,7.484l-4.952,4.245C0.496,11.896,0.739,12,1.007,12h11.986
 			c0.267,0,0.509-0.104,0.688-0.271L8.732,7.484L7,9z"/>
 		<path d="M13.684,2.271C13.504,2.103,13.262,2,12.993,2H1.007C0.74,2,0.498,2.104,0.318,2.273L7,8
 			L13.684,2.271z"/>
 		<polygon points="0,2.878 0,11.186 4.833,7.079 		"/>
 		<polygon points="9.167,7.079 14,11.186 14,2.875 		"/>
 	</symbol>

 	<symbol id="icon-phone" viewBox="0 0 348.077 348.077">
	 	<path d="M340.273,275.083l-53.755-53.761c-10.707-10.664-28.438-10.34-39.518,0.744l-27.082,27.076
	 		c-1.711-0.943-3.482-1.928-5.344-2.973c-17.102-9.476-40.509-22.464-65.14-47.113c-24.704-24.701-37.704-48.144-47.209-65.257
	 		c-1.003-1.813-1.964-3.561-2.913-5.221l18.176-18.149l8.936-8.947c11.097-11.1,11.403-28.826,0.721-39.521L73.39,8.194
	 		C62.708-2.486,44.969-2.162,33.872,8.938l-15.15,15.237l0.414,0.411c-5.08,6.482-9.325,13.958-12.484,22.02
	 		C3.74,54.28,1.927,61.603,1.098,68.941C-6,127.785,20.89,181.564,93.866,254.541c100.875,100.868,182.167,93.248,185.674,92.876
	 		c7.638-0.913,14.958-2.738,22.397-5.627c7.992-3.122,15.463-7.361,21.941-12.43l0.331,0.294l15.348-15.029
	 		C350.631,303.527,350.95,285.795,340.273,275.083z"/>
 	</symbol>

	<symbol id="icon-world" viewBox="0 0 31.416 31.416">
	 	<path d="M28.755,6.968l-0.47,0.149L25.782,7.34l-0.707,1.129l-0.513-0.163L22.57,6.51l-0.289-0.934L21.894,4.58l-1.252-1.123
	 		l-1.477-0.289l-0.034,0.676l1.447,1.412l0.708,0.834L20.49,6.506l-0.648-0.191L18.871,5.91l0.033-0.783l-1.274-0.524l-0.423,1.841
	 		l-1.284,0.291l0.127,1.027l1.673,0.322l0.289-1.641l1.381,0.204l0.642,0.376h1.03l0.705,1.412l1.869,1.896l-0.137,0.737
	 		l-1.507-0.192l-2.604,1.315l-1.875,2.249l-0.244,0.996h-0.673l-1.254-0.578l-1.218,0.578l0.303,1.285l0.53-0.611l0.932-0.029
	 		l-0.065,1.154l0.772,0.226l0.771,0.866l1.259-0.354l1.438,0.227l1.67,0.449l0.834,0.098l1.414,1.605l2.729,1.605l-1.765,3.372
	 		l-1.863,0.866l-0.707,1.927l-2.696,1.8l-0.287,1.038c6.892-1.66,12.019-7.851,12.019-15.253
	 		C31.413,12.474,30.433,9.465,28.755,6.968z"/>
	 	<path d="M17.515,23.917l-1.144-2.121l1.05-2.188l-1.05-0.314l-1.179-1.184l-2.612-0.586l-0.867-1.814v1.077h-0.382l-2.251-3.052
	 		v-2.507L7.43,8.545L4.81,9.012H3.045L2.157,8.43L3.29,7.532L2.16,7.793c-1.362,2.326-2.156,5.025-2.156,7.916
	 		c0,8.673,7.031,15.707,15.705,15.707c0.668,0,1.323-0.059,1.971-0.137l-0.164-1.903c0,0,0.721-2.826,0.721-2.922
	 		C18.236,26.357,17.515,23.917,17.515,23.917z"/>
	 	<path d="M5.84,5.065l2.79-0.389l1.286-0.705l1.447,0.417l2.312-0.128l0.792-1.245l1.155,0.19l2.805-0.263L19.2,2.09l1.09-0.728
	 		l1.542,0.232l0.562-0.085C20.363,0.553,18.103,0,15.708,0C10.833,0,6.474,2.222,3.596,5.711h0.008L5.84,5.065z M16.372,1.562
	 		l1.604-0.883l1.03,0.595l-1.491,1.135l-1.424,0.143l-0.641-0.416L16.372,1.562z M11.621,1.691l0.708,0.295l0.927-0.295
	 		l0.505,0.875l-2.14,0.562l-1.029-0.602C10.591,2.526,11.598,1.878,11.621,1.691z"/>
 	</symbol>
</svg>